<?xml version="1.0" encoding="UTF-8" standalone="no"?>
<!-- Created with Inkscape (http://www.inkscape.org/) -->

<svg
   xmlns:dc="http://purl.org/dc/elements/1.1/"
   xmlns:cc="http://creativecommons.org/ns#"
   xmlns:rdf="http://www.w3.org/1999/02/22-rdf-syntax-ns#"
   xmlns:svg="http://www.w3.org/2000/svg"
   xmlns="http://www.w3.org/2000/svg"
   xmlns:sodipodi="http://sodipodi.sourceforge.net/DTD/sodipodi-0.dtd"
   xmlns:inkscape="http://www.inkscape.org/namespaces/inkscape"
   version="1.1"
   id="logo"
   xml:space="preserve"
   width="1035.9822"
   height="405.66342"
   viewBox="0 0 1035.9822 405.66341"
   sodipodi:docname="adil-logo-v2.svg"
   inkscape:version="0.92.4 (5da689c313, 2019-01-14)"><metadata
     id="metadata8"><rdf:RDF><cc:Work
         rdf:about=""><dc:format>image/svg+xml</dc:format><dc:type
           rdf:resource="http://purl.org/dc/dcmitype/StillImage" /><dc:title /></cc:Work></rdf:RDF></metadata><defs
     id="defs6"><clipPath
       clipPathUnits="userSpaceOnUse"
       id="clipPath26"><path
         d="M 0,841.89 H 1190.55 V 0 H 0 Z"
         id="path24"
         inkscape:connector-curvature="0" /></clipPath></defs><sodipodi:namedview
     pagecolor="#ffffff"
     bordercolor="#666666"
     borderopacity="1"
     objecttolerance="10"
     gridtolerance="10"
     guidetolerance="10"
     inkscape:pageopacity="0"
     inkscape:pageshadow="2"
     inkscape:window-width="1366"
     inkscape:window-height="705"
     id="namedview4"
     showgrid="false"
     inkscape:zoom="0.29132408"
     inkscape:cx="-83.196997"
     inkscape:cy="-43.277693"
     inkscape:window-x="-8"
     inkscape:window-y="-8"
     inkscape:window-maximized="1"
     inkscape:current-layer="g10" /><g
     id="g10"
     inkscape:groupmode="layer"
     inkscape:label="Adil Iqbal vector"
     transform="matrix(1.3333333,0,0,-1.3333333,-274.47512,774.37196)"><g
       id="g12"
       transform="translate(583.8107,283.5182)"><path
         d="M 0,0 H -4.874 L -9.948,23.053 -15.062,0 h -4.754 l -5.593,27.527 h 3.716 l 4.434,-24.211 5.314,24.211 H -7.91 L -2.477,3.316 2.118,27.527 h 3.476 z"
         style="fill:#231f20;fill-opacity:1;fill-rule:nonzero;stroke:none"
         id="path14"
         inkscape:connector-curvature="0" /></g><g
       id="g16"
       transform="translate(613.6544,308.0094)"><path
         d="m 0,0 h -10.667 v -8.989 h 9.269 v -3.037 h -9.269 v -9.429 H 0.759 v -3.036 H -14.463 V 3.036 H 0.439 Z"
         style="fill:#231f20;fill-opacity:1;fill-rule:nonzero;stroke:none"
         id="path18"
         inkscape:connector-curvature="0" /></g><g
       id="g20"><g
         id="g22"
         clip-path="url(#clipPath26)"><g
           id="g28"
           transform="translate(638.0851,287.5533)"><path
             d="m 0,0 c 1.186,0.665 1.778,1.931 1.778,3.796 0,1.81 -0.573,3.116 -1.717,3.915 -1.146,0.799 -2.637,1.198 -4.475,1.198 h -4.515 v -9.908 h 3.795 c 2.238,0 3.948,0.333 5.134,0.999 m -8.929,20.496 v -8.67 h 4.155 c 1.598,0 2.91,0.386 3.935,1.158 1.026,0.773 1.538,1.865 1.538,3.277 0,1.597 -0.539,2.703 -1.618,3.316 -1.078,0.612 -2.71,0.919 -4.893,0.919 z M 4.016,8.51 C 5.187,7.497 5.773,5.926 5.773,3.796 c 0,-5.221 -3.635,-7.831 -10.907,-7.831 h -7.591 v 27.527 h 6.513 c 3.488,0 6.158,-0.573 8.01,-1.718 1.851,-1.145 2.777,-2.89 2.777,-5.234 0,-1.598 -0.5,-2.93 -1.498,-3.995 C 2.078,11.479 0.859,10.801 -0.579,10.508 1.312,10.188 2.843,9.521 4.016,8.51"
             style="fill:#231f20;fill-opacity:1;fill-rule:nonzero;stroke:none"
             id="path30"
             inkscape:connector-curvature="0" /></g><g
           id="g32"
           transform="translate(673.6222,308.0094)"><path
             d="m 0,0 v -21.495 h 3.076 c 2.557,0 4.635,0.786 6.233,2.357 1.597,1.572 2.397,4.421 2.397,8.55 0,2.903 -0.413,5.134 -1.239,6.692 C 9.642,-2.338 8.59,-1.299 7.311,-0.779 6.032,-0.26 4.527,0 2.796,0 Z m 11.966,0.14 c 2.516,-1.932 3.775,-5.508 3.775,-10.728 0,-5.088 -1.259,-8.677 -3.775,-10.766 -2.518,-2.092 -5.573,-3.137 -9.17,-3.137 H -3.796 V 3.036 h 5.753 c 4.155,0 7.491,-0.966 10.009,-2.896"
             style="fill:#231f20;fill-opacity:1;fill-rule:nonzero;stroke:none"
             id="path34"
             inkscape:connector-curvature="0" /></g><g
           id="g36"
           transform="translate(714.8136,308.0094)"><path
             d="m 0,0 h -10.667 v -8.989 h 9.269 v -3.037 h -9.269 v -9.429 H 0.759 v -3.036 H -14.463 V 3.036 H 0.439 Z"
             style="fill:#231f20;fill-opacity:1;fill-rule:nonzero;stroke:none"
             id="path38"
             inkscape:connector-curvature="0" /></g><g
           id="g40"
           transform="translate(735.7081,283.5182)"><path
             d="m 0,0 h -4.075 l -8.87,27.527 H -8.87 L -1.958,4.115 4.954,27.527 h 3.835 z"
             style="fill:#231f20;fill-opacity:1;fill-rule:nonzero;stroke:none"
             id="path42"
             inkscape:connector-curvature="0" /></g><g
           id="g44"
           transform="translate(767.9904,308.0094)"><path
             d="m 0,0 h -10.667 v -8.989 h 9.269 v -3.037 h -9.269 v -9.429 H 0.759 v -3.036 H -14.463 V 3.036 H 0.439 Z"
             style="fill:#231f20;fill-opacity:1;fill-rule:nonzero;stroke:none"
             id="path46"
             inkscape:connector-curvature="0" /></g><g
           id="g48"
           transform="translate(783.4913,286.8346)"><path
             d="m 0,0 h 11.307 l -0.44,-3.316 H -3.796 V 24.211 H 0 Z"
             style="fill:#231f20;fill-opacity:1;fill-rule:nonzero;stroke:none"
             id="path50"
             inkscape:connector-curvature="0" /></g><g
           id="g52"
           transform="translate(808.2208,305.692)"><path
             d="m 0,0 c -1.332,-1.812 -1.998,-4.635 -1.998,-8.47 0,-3.809 0.673,-6.606 2.018,-8.39 1.344,-1.785 3.202,-2.677 5.573,-2.677 5.06,0 7.591,3.702 7.591,11.106 0,7.432 -2.531,11.148 -7.591,11.148 C 3.196,2.717 1.331,1.811 0,0 m 11.686,4.175 c 1.744,-1.106 3.102,-2.724 4.075,-4.855 0.972,-2.131 1.459,-4.714 1.459,-7.751 0,-2.982 -0.487,-5.54 -1.459,-7.67 -0.973,-2.131 -2.331,-3.755 -4.075,-4.875 -1.745,-1.118 -3.776,-1.677 -6.093,-1.677 -2.318,0 -4.349,0.546 -6.093,1.637 -1.744,1.092 -3.103,2.704 -4.075,4.835 -0.973,2.13 -1.458,4.701 -1.458,7.711 0,2.956 0.485,5.513 1.458,7.671 0.972,2.157 2.338,3.802 4.096,4.934 1.757,1.132 3.781,1.698 6.072,1.698 2.317,0 4.348,-0.554 6.093,-1.658"
             style="fill:#231f20;fill-opacity:1;fill-rule:nonzero;stroke:none"
             id="path54"
             inkscape:connector-curvature="0" /></g><g
           id="g56"
           transform="translate(848.5929,297.901)"><path
             d="M 0,0 C 1.158,0.853 1.737,2.384 1.737,4.595 1.737,6.565 1.158,7.99 0,8.869 -1.159,9.748 -2.817,10.188 -4.975,10.188 H -8.37 V -1.278 h 3.315 C -2.844,-1.278 -1.159,-0.853 0,0 M 2.977,11.007 C 4.84,9.582 5.772,7.457 5.772,4.635 5.772,1.624 4.8,-0.613 2.856,-2.077 0.912,-3.543 -1.672,-4.274 -4.895,-4.274 H -8.37 v -10.109 h -3.796 v 27.528 h 7.231 c 3.41,0 6.046,-0.713 7.912,-2.138"
             style="fill:#231f20;fill-opacity:1;fill-rule:nonzero;stroke:none"
             id="path58"
             inkscape:connector-curvature="0" /></g><g
           id="g60"
           transform="translate(878.8956,308.0094)"><path
             d="m 0,0 h -10.667 v -8.989 h 9.269 v -3.037 h -9.269 v -9.429 H 0.759 v -3.036 H -14.463 V 3.036 H 0.439 Z"
             style="fill:#231f20;fill-opacity:1;fill-rule:nonzero;stroke:none"
             id="path62"
             inkscape:connector-curvature="0" /></g><g
           id="g64"
           transform="translate(898.2316,298.1012)"><path
             d="M 0,0 C 1.998,0 3.502,0.405 4.515,1.218 5.526,2.03 6.033,3.342 6.033,5.153 6.033,6.857 5.52,8.09 4.495,8.849 3.469,9.608 1.824,9.987 -0.439,9.987 H -3.835 V 0 Z m 0.439,-2.917 h -4.274 v -11.666 h -3.796 v 27.527 h 7.232 c 3.435,0 6.039,-0.653 7.81,-1.958 C 9.183,9.682 10.068,7.736 10.068,5.153 10.068,3.235 9.575,1.678 8.59,0.479 7.604,-0.72 6.113,-1.625 4.115,-2.237 l 7.432,-12.346 H 7.032 Z"
             style="fill:#231f20;fill-opacity:1;fill-rule:nonzero;stroke:none"
             id="path66"
             inkscape:connector-curvature="0" /></g><g
           id="g68"
           transform="translate(532.9921,412.3088)"><path
             d="m 0,0 c -2.539,-2.945 -5.271,-5.788 -8.325,-8.202 -1.83,-1.445 -5.535,-4.698 -8.092,-4.522 1.076,-0.074 -0.757,1.325 -1.209,2.577 -0.72,1.991 -0.559,4.292 -0.27,6.35 0.779,5.553 3.264,10.827 6.039,15.642 4.766,8.267 17.12,25.294 28.494,19.386 0.234,-0.121 0.615,-0.205 1.061,-0.251 -1.32,-3.061 -2.639,-6.122 -3.939,-9.193 C 10.403,13.86 5.614,6.513 0,0 m -136.022,-32.536 c -2.077,-0.594 -4.16,-1.162 -6.244,-1.726 28.315,40.251 56.219,80.791 83.923,121.464 8.012,11.763 16.001,23.541 23.979,35.326 -18.758,-44.593 -37.189,-89.408 -51.125,-135.711 -0.214,-0.71 -0.426,-1.425 -0.639,-2.138 -16.288,-6.563 -32.901,-12.355 -49.894,-17.215 M 152.969,80.178 c 4.156,8.464 8.59,16.87 13.892,24.682 1.99,2.933 4.108,5.822 6.554,8.395 1.171,1.232 3.232,2.305 4.57,3.395 0.23,-0.398 0.438,-0.779 0.46,-0.841 0.396,-1.109 0.324,-2.422 0.25,-3.571 -0.394,-6.199 -3.33,-12.38 -5.969,-17.884 -6.355,-13.253 -14.42,-25.7 -23.139,-37.506 -4.526,-6.128 -9.311,-12.16 -14.358,-17.982 5.241,14.052 11.144,27.877 17.74,41.312 m 24.349,37.447 c 0.009,0.018 0.041,-0.01 0.083,-0.059 -0.07,0 -0.107,0.015 -0.083,0.059 M 121.416,-15.874 c 0.014,0.034 -0.013,0.099 -0.055,0.175 0.052,-0.056 0.08,-0.114 0.055,-0.175 m -35.562,9.811 c 10.433,1.736 19.742,7.819 27.916,14.219 1.242,0.973 2.465,1.972 3.676,2.985 -1.674,-5.635 -3.127,-11.332 -4.109,-17.091 -1.015,-5.95 -1.855,-12.938 6.357,-12.66 1.175,0.039 3.473,0.466 3.034,2.08 -0.169,0.62 -0.826,1.016 -1.622,1.268 -0.034,0.07 -0.055,0.134 -0.048,0.18 0.076,0.474 -0.195,1.613 -0.203,2.27 -0.032,2.622 0.452,5.283 0.935,7.85 1.532,8.126 3.967,16.101 6.509,23.96 0.334,1.034 0.689,2.063 1.03,3.096 3.161,3.176 6.222,6.449 9.196,9.783 12.926,14.491 24.722,30.3 34.552,47.061 4.144,7.067 8.052,14.351 10.993,22.01 1.717,4.47 4.597,11.547 1.873,16.212 -3.747,6.419 -13.378,3.788 -17.855,-0.036 -6.58,-5.619 -11.197,-13.686 -15.41,-21.114 -12.476,-21.998 -22.136,-45.848 -30.316,-69.739 -0.194,-0.565 -0.385,-1.133 -0.578,-1.7 C 115.962,18.903 109.828,13.584 103.356,8.77 97.051,4.08 82.763,-6.892 74.676,-0.837 66.73,5.112 72.62,19.186 74.968,26.634 75.701,28.959 66.873,30.015 65.826,27.842 61.01,17.851 53.269,9.263 44.91,2.086 38.472,-3.441 29.242,-11.304 20.399,-12.271 c -0.14,-0.016 -0.229,-0.038 -0.291,-0.063 -0.983,0.85 -1.453,2.083 -1.703,3.334 -0.947,4.746 0.991,10.157 2.491,14.567 5.623,16.528 11.818,32.886 18.277,49.104 1.505,3.78 3.044,7.548 4.584,11.314 6.846,15.434 13.487,30.945 19.685,46.67 0.874,2.219 -8.996,3.898 -10.096,1.321 C 47.388,100.008 41.436,86.036 35.67,71.987 30.072,59.202 24.392,46.453 18.842,33.642 7.348,39.112 -5.555,31.481 -13.474,22.99 c -1.709,-1.832 -3.31,-3.775 -4.797,-5.803 -18.09,-9.998 -36.548,-19.186 -55.448,-27.339 8.285,26.793 18.174,53.095 28.494,79.157 12.747,32.189 26.321,64.043 39.552,96.034 1.488,3.598 -8.305,4.532 -9.997,2.009 -46.046,-68.648 -92.391,-137.133 -140,-204.718 -14.495,-3.465 -29.135,-6.26 -43.899,-8.437 -19.193,-2.83 -38.669,-5.55 -58.12,-4.757 -16.383,0.667 -36.636,3.447 -48.128,16.508 -9.6,10.91 -10.956,26.56 -8.711,40.343 5.849,35.898 35.276,62.221 65.472,79.425 18.066,10.293 40.496,19.448 61.666,19.128 14.082,-0.212 31.953,-5.938 33.782,-22.142 0.346,-3.061 9.954,-3.773 10.078,-0.744 0.668,16.328 -17.174,23.648 -30.614,26.339 -18.123,3.628 -36.849,0.136 -54.172,-5.594 -20.941,-6.926 -40.434,-18.208 -57.348,-32.313 -14.909,-12.433 -27.903,-26.39 -35.213,-44.613 -5.886,-14.675 -8.646,-31.495 -3.698,-46.849 5.381,-16.699 20.178,-25.512 36.299,-30.042 21.153,-5.943 43.685,-5.452 65.358,-3.27 20.835,2.099 41.685,5.266 62.147,9.775 -9.147,-12.947 -18.326,-25.871 -27.577,-38.743 -11.859,-16.5 -23.816,-32.93 -35.9,-49.266 -1.772,-2.395 6.967,-4.049 8.753,-1.767 23.63,30.194 45.823,61.522 67.911,92.856 19.928,4.958 39.811,11.183 59.177,18.762 -6.125,-21.255 -11.326,-43.375 -11.262,-65.436 0.047,-16.057 3.965,-34.06 19.747,-41.676 23.943,-11.553 54.11,2.131 75.503,13.109 2.09,1.073 -1.681,2.109 -2.804,1.626 -13.334,-5.733 -27.141,-10.988 -41.501,-13.455 -7.753,-1.331 -16.441,-2.115 -23.843,1.175 -14.299,6.356 -16.701,24.68 -16.707,38.454 -0.011,24.09 6.345,48.223 13.127,71.16 0.005,0.02 0.012,0.039 0.017,0.059 18.389,7.846 36.198,16.969 53.01,27.447 -0.787,-1.528 -1.51,-3.087 -2.146,-4.681 -1.843,-4.615 -3.793,-10.634 -1.746,-15.526 2.334,-5.581 9.57,-6.807 14.932,-5.99 8.324,1.267 15.224,7.616 20.656,13.657 -0.612,-6.906 1.818,-12.637 10.568,-13.401 10.112,-0.883 19.944,5.255 27.702,11.033 5.086,3.787 10.071,8.076 14.572,12.816 0.234,-2.702 1.056,-5.226 2.798,-7.349 5.036,-6.14 14.277,-7.239 21.638,-6.014"
             style="fill:#231f20;fill-opacity:1;fill-rule:nonzero;stroke:none"
             id="path70"
             inkscape:connector-curvature="0" /></g><g
           id="g72"
           transform="translate(613.9032,457.0405)"><path
             d="m 0,0 c 1.957,1.723 3.146,4.525 4.433,6.776 1.196,2.093 1.99,3.615 2.237,5.989 0.193,1.862 -4.636,1.564 -5.522,1.034 C -1.394,12.277 -3.037,10.663 -4.518,8.078 -5.619,6.155 -7.344,3.151 -6.885,0.9 -6.407,-1.442 -1.37,-1.206 0,0"
             style="fill:#231f20;fill-opacity:1;fill-rule:nonzero;stroke:none"
             id="path74"
             inkscape:connector-curvature="0" /></g><g
           id="g76"
           transform="translate(707.1134,376.01)"><path
             d="M 0,0 C -5.359,4.201 -12.742,6.086 -20.101,6.874 -12.115,7.789 -4.129,8.702 3.857,9.616 2.557,6.416 1.269,3.212 0,0 m 78.776,195.405 c -0.043,0.099 -0.008,0.112 0,0 m 8.124,-1.146 c 0.281,0.445 0.52,0.275 0,0 M 141.426,27.394 c -21.988,-1.198 -43.97,-2.982 -65.933,-5.096 6.113,15.694 12.291,31.36 18.583,46.981 4.024,7.116 7.301,14.645 9.072,22.318 0.493,2.136 -7.12,2.923 -7.898,1.042 C 92.213,85.305 89.194,77.963 86.197,70.612 83.909,66.589 81.408,62.705 78.883,58.985 74.053,51.87 68.012,43.838 59.891,40.248 c -0.365,-0.162 -1.241,-0.34 -1.728,-0.516 -0.306,0.453 -0.983,1.169 -1.168,1.509 -1.188,2.188 -1.124,4.85 -0.631,7.211 1.065,5.106 4.216,9.83 7.384,13.875 2.699,3.445 5.803,7.088 9.59,9.371 1.482,0.894 3.441,1.942 5.183,2.133 2.975,0.326 3.473,-1.373 3.873,-4.434 0.076,-0.582 1.784,-0.774 2.03,-0.268 4.492,9.238 -8.62,8.234 -13.886,6.096 -9.137,-3.71 -16.946,-13.604 -20.534,-22.519 -3.49,-8.672 0.04,-17.669 10.452,-16.509 5.581,0.621 10.79,4.027 15.168,8.132 C 72.609,36.715 69.639,29.083 66.715,21.434 49.932,19.754 33.16,17.904 16.404,15.986 27.02,43.738 38.59,71.159 49.714,98.678 c 8.093,20.022 16.207,40.035 24.201,60.097 4.51,11.319 9.549,22.689 13.152,34.345 1.469,4.749 -5.735,5.774 -8.451,2.787 -3.05,-3.355 -4.138,-9.21 -4.807,-13.417 -0.02,-0.128 -10e-4,-0.242 0.035,-0.35 -0.574,-1.457 -1.149,-2.913 -1.728,-4.368 C 66.464,163.565 60.698,149.401 54.943,135.235 40.684,100.134 26.275,65.092 12.135,29.943 10.099,24.882 8.028,19.834 5.964,14.784 -8.981,13.054 -23.913,11.292 -38.828,9.577 -47.608,8.568 -56.388,7.564 -65.167,6.555 -76.516,6.019 -87.83,4.99 -98.82,2.693 c -1.657,-0.346 -3.481,-1.198 -2.098,-2.931 1.375,-1.724 5.208,-1.546 7.077,-1.332 9.261,1.06 18.522,2.121 27.784,3.182 8.591,0.416 17.211,0.522 25.776,0.87 12.808,0.521 31.389,2.559 36.871,-12.265 1.033,-2.794 9.248,-2.993 10.249,-0.158 2.453,6.952 5.015,13.867 7.619,20.768 16.801,1.921 33.603,3.839 50.405,5.756 C 64.811,16.445 64.758,16.309 64.706,16.171 60.784,5.814 57.05,-4.597 53.277,-15.008 48.821,-27.302 43.858,-39.507 40.096,-52.03 c -0.417,-1.386 4.356,-1.901 4.951,-0.676 10.332,21.273 18.397,43.97 26.945,66.019 0.552,1.426 1.112,2.849 1.665,4.274 5.765,0.657 11.53,1.319 17.294,1.975 17.411,1.982 34.886,3.492 52.263,5.75 3.009,0.391 -0.326,2.162 -1.788,2.082"
             style="fill:#231f20;fill-opacity:1;fill-rule:nonzero;stroke:none"
             id="path78"
             inkscape:connector-curvature="0" /></g><g
           id="g80"
           transform="translate(976.2809,522.2304)"><path
             d="m 0,0 c -1.476,-11.081 -5.922,-21.862 -10.54,-31.95 -7.719,-16.864 -17.162,-34.251 -28.943,-49.181 1.951,10.848 4.405,21.635 7.004,32.336 3.24,13.347 6.853,26.694 11.789,39.526 2.115,5.496 4.485,10.996 7.634,15.991 1.731,2.745 4.697,7.592 8.228,8.299 C 0.692,16.126 0.481,3.609 0,0 m -60.584,-101.936 c 0.006,0.045 -0.082,0.216 -0.228,0.463 0.168,-0.016 0.277,-0.135 0.228,-0.463 m -0.588,0.392 c -1.17,-0.837 -0.57,-0.231 0,0 m -12.9,19.559 c -1.716,-4.541 -3.93,-9.04 -6.886,-12.913 -0.564,-0.737 -1.16,-1.486 -1.806,-2.185 0.002,0.05 0,0.106 0.005,0.152 0.153,1.497 0.527,2.973 0.918,4.422 1.021,3.782 2.457,7.454 4.028,11.038 1.312,2.992 2.691,6.072 4.267,9.037 -0.243,-3.023 -0.422,-6.194 -0.443,-9.329 -0.027,-0.072 -0.055,-0.15 -0.083,-0.222 M 2.165,15.326 c -7.118,5.354 -15.131,0.702 -19.596,-5.456 -7.95,-10.963 -12.147,-25.077 -16.032,-37.873 -4.63,-15.248 -8.348,-30.778 -11.601,-46.374 -1.125,-5.392 -2.276,-11.077 -3.162,-16.876 -0.812,-0.855 -1.625,-1.708 -2.457,-2.536 -2.145,-2.136 -4.407,-4.158 -6.945,-5.822 -1,-0.656 -2.271,-1.093 -3.254,-1.746 -0.648,1.075 -2.152,3.293 -2.326,3.83 -0.753,2.324 -1.013,4.813 -1.189,7.239 -0.184,2.531 -0.222,5.058 -0.169,7.583 3.184,7.954 5.856,18.159 1.707,25.058 -1.077,1.791 -9.065,3.128 -9.247,0.157 -0.073,-1.188 -0.215,-2.657 -0.39,-4.329 -1.75,0.16 -3.479,0.041 -4.065,-0.403 -7.376,-5.587 -13.597,-12.638 -20.28,-19 -2.786,-2.651 -5.706,-5.475 -8.788,-8.152 0.933,1.355 1.743,2.774 2.393,4.256 3.705,8.435 -1.689,14.889 -9.86,17.31 -10.648,3.155 -21.426,-1.305 -29.875,-7.707 -2.287,-1.732 -4.521,-3.609 -6.679,-5.598 3.418,10.827 6.41,21.83 9.739,32.509 3.723,11.938 7.45,23.879 11.35,35.76 2.478,7.548 4.815,15.363 7.985,22.688 0.104,-1.732 0.236,-3.428 0.52,-5.182 0.123,-0.756 2.229,-0.887 2.482,-0.183 1.137,3.162 4.204,15.637 -3.851,12.552 -1.908,-0.73 -2.958,-2.942 -3.884,-4.619 -1.994,-3.613 -3.658,-7.448 -5.189,-11.277 -9.883,-24.709 -17.808,-50.199 -26.305,-75.403 -3.372,-10.001 -6.343,-20.385 -10.77,-29.988 -1.301,-2.823 7.514,-4.031 8.75,-1.696 5.084,9.598 12.66,18.524 20.91,25.538 5.796,4.928 19.57,15.444 25.706,5.486 4.395,-7.135 -4.269,-16.036 -9.373,-20.043 -3.541,-2.78 -7.638,-5.318 -12.018,-6.494 -0.904,-0.243 -2.669,-0.831 -3.604,-0.424 -2.003,0.871 -0.092,4.805 0.982,6.346 0.969,1.39 -3.658,1.762 -4.429,1.146 -2.315,-1.851 -4.337,-4.028 -5.963,-6.505 -0.371,-0.566 -0.082,-1.013 0.326,-1.441 5.726,-6.007 16.813,-3.664 23.405,-0.695 1.063,0.479 2.133,1.013 3.197,1.59 0.026,0.004 0.059,0.006 0.081,0.012 12.904,3.282 22.725,11.946 32.335,20.872 -0.711,-1.799 -1.377,-3.556 -2.005,-5.199 -2.107,-5.509 -6.572,-16.029 2.115,-17.868 6.429,-1.361 11.352,2.083 15.037,6.791 2.189,-6.392 6.651,-10.24 15.155,-8.095 2.647,0.667 5.16,1.946 7.536,3.609 -1.005,-12.291 -0.096,-24.636 5.448,-35.406 0.908,-1.763 5.067,-1.85 6.522,-0.855 0.958,0.656 1.381,1.368 2.144,2.234 0.772,0.877 -1.089,1.738 -3.101,2 -5.086,12.211 -4.802,26.09 -3.109,39.263 3.552,3.969 6.671,8.329 9.325,11.936 8.797,11.959 16.384,24.868 22.991,38.152 5.88,11.825 11.366,24.271 14.249,37.212 1.469,6.59 3.529,17.301 -2.874,22.116"
             style="fill:#231f20;fill-opacity:1;fill-rule:nonzero;stroke:none"
             id="path82"
             inkscape:connector-curvature="0" /></g></g></g></g></svg>