<?xml version="1.0" encoding="UTF-8" standalone="no"?>
<!-- Created with Inkscape (http://www.inkscape.org/) -->

<svg
   xmlns:dc="http://purl.org/dc/elements/1.1/"
   xmlns:cc="http://creativecommons.org/ns#"
   xmlns:rdf="http://www.w3.org/1999/02/22-rdf-syntax-ns#"
   xmlns:svg="http://www.w3.org/2000/svg"
   xmlns="http://www.w3.org/2000/svg"
   xmlns:sodipodi="http://sodipodi.sourceforge.net/DTD/sodipodi-0.dtd"
   xmlns:inkscape="http://www.inkscape.org/namespaces/inkscape"
   width="190mm"
   height="70mm"
   viewBox="0 0 190 70"
   version="1.1"
   id="svg3920"
   inkscape:version="0.92.2 (5c3e80d, 2017-08-06)"
   sodipodi:docname="logo-1.1.svg">
  <defs
     id="defs3914">
    <clipPath
       id="clipPath24"
       clipPathUnits="userSpaceOnUse">
      <path
         inkscape:connector-curvature="0"
         id="path26"
         d="M 0,841.89 H 1190.55 V 0 H 0 Z" />
    </clipPath>
  </defs>
  <sodipodi:namedview
     id="base"
     pagecolor="#ffffff"
     bordercolor="#666666"
     borderopacity="1.0"
     inkscape:pageopacity="0.0"
     inkscape:pageshadow="2"
     inkscape:zoom="0.35"
     inkscape:cx="400"
     inkscape:cy="560"
     inkscape:document-units="mm"
     inkscape:current-layer="layer1"
     showgrid="false"
     inkscape:window-width="1366"
     inkscape:window-height="719"
     inkscape:window-x="0"
     inkscape:window-y="25"
     inkscape:window-maximized="1" />
  <metadata
     id="metadata3917">
    <rdf:RDF>
      <cc:Work
         rdf:about="">
        <dc:format>image/svg+xml</dc:format>
        <dc:type
           rdf:resource="http://purl.org/dc/dcmitype/StillImage" />
        <dc:title></dc:title>
      </cc:Work>
    </rdf:RDF>
  </metadata>
  <g
     inkscape:label="Layer 1"
     inkscape:groupmode="layer"
     id="layer1"
     transform="translate(0,-227)">
    <g
       transform="matrix(0.25123695,0,0,-0.25123695,-53.572137,355.53169)"
       id="g10"
       style="fill-opacity:1;fill-rule:nonzero;stroke:none">
      <g
         transform="translate(453.522,241.7602)"
         id="g12"
         style="fill-opacity:1;fill-rule:nonzero;stroke:none">
        <path
           id="title"
           d="M 0,0 H -5.124 L -10.458,24.234 -15.834,0 h -4.998 l -5.88,28.938 h 3.906 l 4.662,-25.452 5.586,25.452 h 4.242 L -2.604,3.486 2.226,28.938 H 5.88 Z"
           inkscape:connector-curvature="0"
           style="fill:#f7ce3e" />
      </g>
      <g
         transform="translate(484.895,267.5063)"
         id="g16"
         style="fill-opacity:1;fill-rule:nonzero;stroke:none">
        <path
           id="path3816"
           d="m 0,0 h -11.214 v -9.45 h 9.744 v -3.193 h -9.744 v -9.911 H 0.798 v -3.192 H -15.204 V 3.192 H 0.462 Z"
           inkscape:connector-curvature="0"
           style="fill:#f7ce3e" />
      </g>
      <g
         id="g20"
         style="fill-opacity:1;fill-rule:nonzero;stroke:none">
        <g
           clip-path="url(#clipPath24)"
           id="g22"
           style="fill-opacity:1;fill-rule:nonzero;stroke:none">
          <g
             transform="translate(510.5781,246.0023)"
             id="g28"
             style="fill-opacity:1;fill-rule:nonzero;stroke:none">
            <path
               id="path3819"
               d="m 0,0 c 1.246,0.699 1.869,2.029 1.869,3.99 0,1.904 -0.602,3.276 -1.806,4.115 -1.205,0.841 -2.772,1.261 -4.704,1.261 H -9.387 V -1.05 h 3.99 c 2.352,0 4.15,0.35 5.397,1.05 m -9.387,21.546 v -9.114 h 4.368 c 1.68,0 3.059,0.405 4.137,1.217 1.077,0.813 1.617,1.96 1.617,3.445 0,1.679 -0.567,2.842 -1.701,3.486 -1.134,0.644 -2.849,0.966 -5.145,0.966 z M 4.221,8.946 C 5.453,7.882 6.069,6.229 6.069,3.99 c 0,-5.488 -3.822,-8.232 -11.466,-8.232 h -7.98 v 28.938 h 6.846 c 3.668,0 6.474,-0.602 8.421,-1.806 1.945,-1.204 2.919,-3.038 2.919,-5.502 0,-1.68 -0.525,-3.08 -1.575,-4.2 -1.05,-1.121 -2.331,-1.834 -3.843,-2.142 1.987,-0.336 3.597,-1.036 4.83,-2.1"
               inkscape:connector-curvature="0"
               style="fill:#f7ce3e" />
          </g>
          <g
             transform="translate(547.9365,267.5063)"
             id="g32"
             style="fill-opacity:1;fill-rule:nonzero;stroke:none">
            <path
               id="path3822"
               d="m 0,0 v -22.596 h 3.234 c 2.688,0 4.872,0.825 6.552,2.478 1.68,1.651 2.52,4.647 2.52,8.988 0,3.052 -0.434,5.397 -1.302,7.035 -0.868,1.638 -1.974,2.73 -3.318,3.276 C 6.342,-0.273 4.76,0 2.94,0 Z m 12.579,0.146 c 2.646,-2.03 3.969,-5.789 3.969,-11.276 0,-5.349 -1.323,-9.121 -3.969,-11.319 C 9.933,-24.647 6.72,-25.746 2.94,-25.746 H -3.99 V 3.192 h 6.048 c 4.368,0 7.875,-1.015 10.521,-3.046"
               inkscape:connector-curvature="0"
               style="fill:#f7ce3e" />
          </g>
          <g
             transform="translate(591.2383,267.5063)"
             id="g36"
             style="fill-opacity:1;fill-rule:nonzero;stroke:none">
            <path
               id="path3825"
               d="m 0,0 h -11.214 v -9.45 h 9.744 v -3.193 h -9.744 v -9.911 H 0.798 v -3.192 H -15.204 V 3.192 H 0.462 Z"
               inkscape:connector-curvature="0"
               style="fill:#f7ce3e" />
          </g>
          <g
             transform="translate(613.2041,241.7602)"
             id="g40"
             style="fill-opacity:1;fill-rule:nonzero;stroke:none">
            <path
               id="path3828"
               d="m 0,0 h -4.284 l -9.324,28.938 h 4.284 L -2.058,4.326 5.208,28.938 H 9.24 Z"
               inkscape:connector-curvature="0"
               style="fill:#f7ce3e" />
          </g>
          <g
             transform="translate(647.1392,267.5063)"
             id="g44"
             style="fill-opacity:1;fill-rule:nonzero;stroke:none">
            <path
               id="path3831"
               d="m 0,0 h -11.214 v -9.45 h 9.744 v -3.193 h -9.744 v -9.911 H 0.799 v -3.192 H -15.203 V 3.192 H 0.463 Z"
               inkscape:connector-curvature="0"
               style="fill:#f7ce3e" />
          </g>
          <g
             transform="translate(663.4351,245.2465)"
             id="g48"
             style="fill-opacity:1;fill-rule:nonzero;stroke:none">
            <path
               id="path3834"
               d="M 0,0 H 11.887 L 11.424,-3.486 H -3.989 V 25.452 H 0 Z"
               inkscape:connector-curvature="0"
               style="fill:#f7ce3e" />
          </g>
          <g
             transform="translate(689.4341,265.0697)"
             id="g52"
             style="fill-opacity:1;fill-rule:nonzero;stroke:none">
            <path
               id="path3837"
               d="m 0,0 c -1.4,-1.904 -2.101,-4.871 -2.101,-8.903 0,-4.005 0.707,-6.945 2.122,-8.821 1.414,-1.876 3.367,-2.813 5.859,-2.813 5.319,0 7.979,3.891 7.979,11.676 0,7.811 -2.66,11.717 -7.979,11.717 C 3.359,2.856 1.399,1.904 0,0 m 12.284,4.39 c 1.834,-1.162 3.262,-2.864 4.284,-5.104 1.023,-2.24 1.534,-4.956 1.534,-8.147 0,-3.137 -0.511,-5.825 -1.534,-8.065 -1.022,-2.24 -2.45,-3.948 -4.284,-5.124 -1.834,-1.176 -3.969,-1.763 -6.404,-1.763 -2.437,0 -4.571,0.573 -6.405,1.721 -1.834,1.149 -3.262,2.842 -4.285,5.082 -1.022,2.24 -1.533,4.942 -1.533,8.107 0,3.107 0.511,5.796 1.533,8.063 1.023,2.269 2.457,3.997 4.306,5.188 1.848,1.189 3.976,1.785 6.384,1.785 2.435,0 4.57,-0.582 6.404,-1.743"
               inkscape:connector-curvature="0"
               style="fill:#f7ce3e" />
          </g>
          <g
             transform="translate(731.8745,256.8803)"
             id="g56"
             style="fill-opacity:1;fill-rule:nonzero;stroke:none">
            <path
               id="path3840"
               d="M 0,0 C 1.218,0.896 1.827,2.506 1.827,4.83 1.827,6.901 1.218,8.399 0,9.324 -1.218,10.248 -2.961,10.71 -5.229,10.71 h -3.57 V -1.344 h 3.486 C -2.989,-1.344 -1.218,-0.896 0,0 M 3.129,11.571 C 5.088,10.072 6.068,7.84 6.068,4.872 6.068,1.707 5.046,-0.645 3.003,-2.185 0.959,-3.725 -1.758,-4.494 -5.146,-4.494 H -8.799 V -15.12 h -3.99 v 28.938 h 7.602 c 3.583,0 6.356,-0.75 8.316,-2.247"
               inkscape:connector-curvature="0"
               style="fill:#f7ce3e" />
          </g>
          <g
             transform="translate(763.731,267.5063)"
             id="g60"
             style="fill-opacity:1;fill-rule:nonzero;stroke:none">
            <path
               id="path3843"
               d="m 0,0 h -11.214 v -9.45 h 9.743 v -3.193 h -9.743 v -9.911 H 0.798 v -3.192 H -15.204 V 3.192 H 0.462 Z"
               inkscape:connector-curvature="0"
               style="fill:#f7ce3e" />
          </g>
          <g
             transform="translate(784.0581,257.0902)"
             id="g64"
             style="fill-opacity:1;fill-rule:nonzero;stroke:none">
            <path
               id="path3846"
               d="M 0,0 C 2.101,0 3.682,0.427 4.746,1.281 5.811,2.135 6.343,3.514 6.343,5.418 6.343,7.21 5.803,8.505 4.726,9.303 3.647,10.101 1.918,10.5 -0.462,10.5 H -4.031 V 0 Z M 0.462,-3.066 H -4.031 V -15.33 h -3.99 v 28.938 h 7.601 c 3.612,0 6.349,-0.686 8.211,-2.058 C 9.653,10.178 10.584,8.134 10.584,5.418 10.584,3.402 10.065,1.764 9.03,0.504 7.994,-0.756 6.427,-1.708 4.326,-2.353 L 12.139,-15.33 H 7.393 Z"
               inkscape:connector-curvature="0"
               style="fill:#f7ce3e" />
          </g>
          <g
             transform="translate(708.3679,369.3272)"
             id="g68"
             style="fill-opacity:1;fill-rule:nonzero;stroke:none">
            <path
               id="signature"
               d="M 0,0 C 2.116,1.063 4.564,1.684 6.932,2.145 4.745,0.879 2.378,0.059 0,0 m -95.905,-1.492 c -3.507,0.207 -7.897,0.714 -11.45,2.3 10.213,0.376 20.423,0.686 30.546,-0.303 -0.002,-0.163 -0.001,-0.326 0.012,-0.491 0.005,-0.073 0.026,-0.143 0.042,-0.213 -6.338,-1.145 -12.804,-1.669 -19.15,-1.293 m 35.776,10.159 c 3.85,1.667 9.254,3.838 13.953,3.947 -3.027,-5.298 -12.803,-8.137 -17.78,-9.66 -1.504,0.32 -3.016,0.607 -4.535,0.863 2.437,2.113 5.514,3.617 8.362,4.85 M -167.12,24.082 c -9.295,-5.796 -18.847,-11.158 -28.601,-16.121 6.946,10.436 14.799,20.379 22.565,29.978 15.201,18.79 32.139,35.245 51.426,49.735 8.741,6.567 17.98,13.238 28.193,17.327 2.599,1.041 7.006,2.939 9.833,1.639 4.09,-1.88 3.096,-8.137 1.638,-11.273 -2.403,-5.165 -6.572,-9.465 -10.847,-13.375 -12.873,-8.127 -24.968,-17.465 -35.976,-27.863 -3.559,-3.361 -7.008,-6.867 -10.349,-10.486 -9.026,-6.895 -18.231,-13.544 -27.882,-19.561 m -168.89,-45.087 c -2.347,-1.196 -10.212,-5.333 -8.133,0.272 1.192,3.217 4.021,6.013 6.375,8.398 8.105,8.211 17.765,15.038 27.679,20.874 4.068,2.394 8.292,4.834 12.81,6.285 2.042,0.655 4.623,1.872 5.195,-0.22 -0.585,-0.719 -1.166,-1.441 -1.739,-2.169 -1.127,-0.945 -2.245,-1.9 -3.341,-2.881 -12.364,-11.064 -23.878,-22.936 -38.846,-30.559 m 81.432,69.526 c 4.476,4.507 9.05,8.934 13.873,13.071 3.459,2.967 7.29,6.486 11.567,8.242 0.134,0.055 0.308,0.11 0.491,0.166 -1.005,-1.682 -2.104,-3.894 -3.556,-5.579 -5.701,-6.614 -12.649,-12.264 -19.358,-17.81 -7.106,-5.874 -14.222,-11.736 -21.336,-17.601 5.947,6.653 12.034,13.183 18.319,19.511 M -377.565,12.235 c 23.331,14.94 46.66,29.885 70.035,44.757 6.782,4.315 13.564,8.631 20.364,12.92 -15.875,-14.395 -31.829,-28.702 -47.331,-43.507 -5.154,-4.923 -10.278,-9.888 -15.321,-14.933 -9.27,0.008 -18.543,0.304 -27.747,0.763 M 59.663,7.573 C 59.27,7.199 58.999,7.12 58.85,7.107 58.607,7.578 58.579,8.102 58.782,8.62 c 0.417,1.058 1.219,2.013 2.243,2.874 1.448,0.495 2.889,1.018 4.322,1.565 -0.73,-0.953 -1.526,-1.832 -2.248,-2.587 C 62.05,9.375 60.738,8.594 59.663,7.573 m 68.718,26.071 c 7.353,24.372 18.87,46.754 34.495,66.89 9.874,12.725 22.843,27.909 38.937,32.614 5.777,1.689 13.667,1.752 17.763,-3.428 3.307,-4.182 3.031,-10.16 2.197,-15.118 C 219.572,101.523 212.56,89.019 205.407,78.031 196.361,64.135 184.885,51.348 172.707,40.144 164.832,32.9 156.299,26.379 147.231,20.696 139.545,15.878 131.43,11.142 122.94,7.62 c 0.771,9.695 3.595,19.905 5.441,26.024 M 52.195,8.83 c -0.134,-1.291 0.336,-2.631 1.668,-3.994 4.057,-4.153 9.799,-1.719 14.139,2.435 4.304,-6.92 16.833,-9.473 24.951,-9.646 7.989,-0.171 15.699,0.981 23.146,3.074 0.057,-0.986 0.138,-1.969 0.25,-2.949 1.604,-14.062 12.04,-20.879 25.806,-19.266 4.309,0.505 2.155,4.479 -1.302,4.145 -14.079,-1.362 -18.114,8.409 -18.114,20.202 11.878,4.276 23.073,10.746 33.656,17.778 18.559,12.332 33.953,28.261 47.798,45.606 9.01,11.288 16.685,24.226 21.442,37.893 3.902,11.212 6.174,26.542 -7.265,32.045 -16.025,6.562 -32.534,-3.822 -44.024,-14.32 C 151.034,100.536 134.446,71.971 124.248,42.295 120.229,30.6 116.22,17.725 116.021,5.073 115.545,4.92 115.07,4.765 114.592,4.622 107.071,2.367 69.383,-2.771 72.807,13.644 c 0.539,1.067 0.936,2.107 1.148,3.064 0.335,0.156 0.671,0.306 1.005,0.465 3.524,1.68 -1.654,4.041 -3.575,3.623 -2.253,-0.49 -7.589,-2.2 -12.07,-4.644 C 47.808,12.358 36.066,10.356 23.783,9.227 23.437,9.196 23.09,9.163 22.743,9.13 c 3.302,6.011 3.847,13.298 -3.605,16.861 -8.623,4.123 -17.45,-0.164 -24.34,-5.761 0.229,0.395 0.455,0.792 0.685,1.187 7.906,13.598 15.636,27.253 23.025,41.14 4.697,8.826 9.037,17.943 14.323,26.44 1.006,1.618 2.043,3.227 3.194,4.747 0.288,0.38 1.672,1.601 2.636,2.589 0.092,-0.205 0.158,-0.356 0.17,-0.391 1.028,-2.991 1.111,-6.314 1.267,-9.434 0.146,-2.897 6.852,-3.554 6.803,-0.744 -0.106,6.146 0.099,17.262 -8.774,16.825 -4.735,-0.233 -8.231,-4.579 -10.888,-8.749 1.039,10.212 -6.994,17.436 -17.017,19.566 -14.189,3.016 -29.738,-0.603 -43.392,-4.512 -15.997,-4.58 -31.522,-10.997 -46.218,-18.966 4.657,7.173 7.582,16.276 -2.076,19.786 -9.044,3.287 -20.045,-3.296 -27.484,-7.739 -20.759,-12.398 -39.89,-28.689 -56.158,-46.543 -8.118,-8.911 -15.716,-18.287 -22.939,-27.933 -5.883,-7.856 -11.861,-15.827 -17.098,-24.193 -7.821,-3.719 -15.764,-7.182 -23.812,-10.392 -10.863,-4.333 -23.497,-9.565 -35.425,-9.335 -10.389,0.201 -3.425,10.931 0.393,14.92 2.089,2.224 -3.149,3.993 -4.716,2.356 -4.645,-4.948 -10.349,-9.261 -16.367,-12.388 -4.949,-2.572 -15.26,-5.438 -13.895,3.795 0.864,5.838 4.405,11.428 8.493,16.559 1.481,1.281 2.98,2.541 4.527,3.745 9.677,7.531 19.159,15.223 28.605,23.043 9.019,7.466 18.368,14.632 26.626,22.963 2.474,2.496 10.901,9.877 7.273,13.965 -6.357,7.163 -21.184,-7.797 -25.126,-11.359 -12.402,-11.208 -23.755,-23.642 -34.725,-36.236 -2.158,-2.478 -4.324,-4.962 -6.445,-7.484 -3.171,2.547 -11.499,-0.06 -14.313,-1.21 -2.141,-0.875 -4.254,-1.848 -6.338,-2.902 -0.318,0.109 -0.654,0.159 -0.977,0.122 -10.432,-1.199 -21.001,-1.778 -31.598,-1.942 15.328,15.308 31.394,29.914 47.409,44.454 10.196,9.257 20.478,18.421 30.596,27.762 2.116,1.952 -2.64,3.475 -4.114,2.575 -28.851,-17.618 -57.229,-36.028 -85.683,-54.276 -10.087,-6.469 -20.177,-12.933 -30.267,-19.398 -0.767,0.045 -1.536,0.088 -2.302,0.134 -11.191,0.683 -22.373,1.66 -33.4,3.756 -13.582,2.582 -29.702,6.559 -39.715,16.799 -22.208,22.713 14.294,51.985 32.122,62.589 17.618,10.479 36.983,19.766 57.155,23.965 8.493,1.768 18.944,3.105 26.927,-1.227 9.122,-4.95 10.24,-15.416 12.224,-24.529 0.24,-1.103 2.573,-1.136 2.863,-0.069 2.383,8.755 0.082,18.902 -6.888,25.011 -6.582,5.771 -15.803,7.197 -24.267,6.998 -22.392,-0.526 -44.848,-10.752 -64.205,-21.222 -12.38,-6.696 -24.331,-14.359 -34.172,-24.529 -9.155,-9.459 -18.512,-22.749 -15.245,-36.655 3.094,-13.164 16.46,-20.746 28.111,-25.25 13.885,-5.368 28.863,-7.922 43.633,-9.317 3.433,-0.324 6.872,-0.599 10.314,-0.841 -19.442,-12.458 -38.885,-24.917 -58.315,-37.394 -8.664,-5.563 -17.596,-10.788 -25.652,-17.196 -0.848,-0.675 0.847,-1.336 1.392,-1.136 8.292,3.043 15.698,8.191 23.165,12.828 14.117,8.767 28.12,17.711 42.121,26.66 8.221,5.255 16.438,10.515 24.655,15.776 9.441,-0.515 18.899,-0.76 28.343,-0.815 0.628,-0.004 1.258,-0.005 1.888,-0.006 -4.332,-4.427 -8.589,-8.924 -12.729,-13.528 -6.814,-7.578 -14.545,-15.787 -18.728,-25.222 -2.916,-6.575 -0.737,-12.441 7.047,-12.656 2.316,-0.063 2.656,2.16 0.272,2.481 -6.259,0.844 -2.906,7.377 -0.944,10.996 5.008,9.233 12.448,17.273 19.509,24.951 4.057,4.411 8.212,8.732 12.412,13.01 9.988,0.135 20.039,0.703 29.88,2.34 -6.532,-3.979 -12.712,-8.631 -18.435,-13.453 -4.077,-3.436 -16.99,-13.184 -13.9,-20.016 2.503,-5.533 11.05,-2.839 15.003,-1.132 7.316,3.159 14.237,8.011 20.581,12.805 3.628,2.741 7.025,5.75 10.356,8.836 -0.872,-2.534 -1.229,-5.101 -0.611,-7.527 1.824,-7.157 11.257,-7.75 17.022,-5.995 4.066,1.237 8.071,3.26 11.822,5.728 -0.061,-1.104 0.082,-2.206 0.504,-3.281 2.416,-6.159 11.465,-5.635 16.66,-4.992 16.895,2.092 33.582,8.663 49.345,16.109 -0.172,-0.31 -0.356,-0.615 -0.526,-0.928 -4.884,-8.973 -9.253,-18.603 -11.78,-28.535 -1.175,-4.616 -3.282,-12.849 1.491,-16.251 1.43,-1.02 5.441,0.112 3.312,1.63 -3.304,2.355 0.37,12.295 1.217,15.157 2.314,7.811 5.523,15.367 9.22,22.619 1.838,3.603 3.839,7.141 5.955,10.626 2.448,1.217 4.871,2.439 7.261,3.652 14.114,7.158 27.899,15.14 41.018,24.065 -6.162,-8.004 -11.79,-16.415 -16.773,-25.099 -5.099,-8.885 -9.42,-18.345 -11.789,-28.347 -1.945,-8.211 -3.27,-18.466 0.083,-26.529 5.442,-13.085 21.878,-12.329 33.257,-8.981 15.58,4.584 32.606,14.29 43.368,26.584 1.09,1.246 -1.502,1.834 -2.351,1.21 -11.518,-8.462 -23.204,-16.242 -36.648,-21.334 -8.297,-3.142 -23.749,-8.502 -29.995,0.969 -4.135,6.268 -3.151,15.572 -2.013,22.546 1.584,9.706 5.377,18.916 9.96,27.567 8.815,16.638 20.463,32.408 33.412,46.051 0.795,0.837 1.614,1.653 2.423,2.478 12.705,10.013 25.724,19.812 37.547,30.869 14.498,9.529 30.068,17.428 46.219,23.367 12.959,4.767 26.674,8.85 40.487,9.995 9.394,0.779 24.021,0.276 25.536,-11.861 C 22.28,85.191 8.826,73.201 0.017,66.138 -11.111,57.216 -25.293,48.333 -39.708,46.337 c -3.58,-0.495 -1.811,-3.778 1.088,-3.463 14.135,1.532 27.6,8.853 39.02,16.96 4.937,3.505 10.229,7.653 14.832,12.403 -1.315,-2.544 -2.629,-5.088 -3.969,-7.611 -6.915,-13.016 -14.045,-25.891 -21.51,-38.6 -7.526,-12.813 -14.545,-25.94 -22.581,-38.447 -5.776,6.315 -15.032,10.735 -22.686,13.173 7.322,2.612 14.852,6.639 16.245,13.094 0.313,1.448 -1.926,2.099 -2.862,2.278 -6.831,1.306 -14.59,-1.319 -20.826,-3.891 -3.33,-1.372 -9.274,-3.871 -12.173,-7.489 -12.237,1.366 -24.809,0.986 -37.22,0.068 -0.776,1.204 -1.28,2.635 -1.403,4.347 -0.472,6.609 3.893,13.52 7.309,18.828 4.386,6.816 9.72,13.271 15.967,18.467 4.738,3.941 10.124,7.225 15.488,10.225 3.574,1.999 11.982,7.65 16.257,5.197 1.005,-0.577 5.226,-0.579 4.358,1.527 -2.362,5.724 -10.706,3.918 -15.197,2.415 -7.382,-2.472 -14.161,-6.614 -20.608,-10.909 -13.341,-8.889 -26.899,-23.55 -30.539,-39.579 -1.042,-4.589 -0.618,-8.24 0.867,-11.13 -5.248,-0.461 -10.449,-0.975 -15.564,-1.448 -1.86,-0.172 -1.498,-2.032 0.218,-2.132 6.062,-0.351 12.151,-0.305 18.249,-0.136 9.177,-8.2 30.773,-6.694 43.96,-4.342 -5.956,-4.908 -11.076,-11.233 -15.202,-16.592 -8.569,-11.13 -16.541,-23.524 -22.854,-36.098 -4.585,-9.133 -9.744,-24.778 3.764,-29.004 10.357,-3.24 22.691,3.395 31.488,8.148 11.392,6.156 21.726,13.75 32.428,20.968 1.533,1.034 -1.673,2.149 -2.63,1.683 -8.341,-4.062 -15.949,-9.747 -23.847,-14.582 -9.187,-5.624 -20.04,-12.641 -31.047,-13.63 -15.593,-1.401 -9.375,17.686 -5.377,25.61 5.329,10.566 11.87,20.834 18.653,30.511 6.87,9.803 14.3,18.654 23.935,25.106 0.08,0.022 0.164,0.045 0.245,0.067 7.629,-1.798 15.437,-4.548 21.556,-9.514 6.866,-5.573 8.025,-12.08 6.446,-20.374 l 0.068,-0.002 c -0.161,-2.611 5.472,-3.614 6.455,-1.279 2.492,5.923 1.911,11.138 -0.485,15.629 1.146,0.081 2.198,0.442 2.739,1.155 5.594,7.375 10.818,15.038 16.787,22.124 5.165,6.131 12.308,14.94 20.675,16.532 8.513,1.62 7.558,-7.457 4.492,-12.331 C 14.866,9.577 14.367,8.877 13.817,8.185 10.518,7.768 7.234,7.25 3.99,6.545 -0.621,5.542 -6.183,4.187 -9.488,0.546 c -1.095,-1.206 -0.498,-2.69 0.971,-3.325 9.782,-4.229 20.39,-0.77 27.455,6.743 4.014,0.45 8.044,0.779 12.06,1.144 7.207,0.655 14.278,1.902 21.197,3.722"
               inkscape:connector-curvature="0"
               style="fill:#c5c1c0" />
          </g>
          <g
             transform="translate(956.1002,344.4437)"
             id="g72"
             style="fill-opacity:1;fill-rule:nonzero;stroke:none">
            <path
               id="path3851"
               d="m 0,0 c -12.482,1.134 -25.262,0.285 -37.752,-0.279 -15.956,-0.72 -31.889,-1.948 -47.81,-3.204 -30.442,-2.401 -60.878,-5.047 -91.216,-8.542 -8.267,-0.953 -17.048,-1.395 -25.049,-3.822 -2.431,-0.737 -1.796,-2.02 -0.385,-2.835 -0.088,-0.049 -0.173,-0.107 -0.252,-0.185 0.082,0.081 -1.233,0.497 0.285,-0.196 0.64,-0.291 1.228,-0.345 1.907,-0.432 0.209,-0.027 1.833,0.085 0.826,0.048 1.245,0.046 2.541,0.208 3.778,0.341 3.911,0.42 7.812,0.966 11.723,1.397 13.022,1.436 26.062,2.671 39.101,3.933 33.402,3.232 66.849,5.937 100.321,8.32 14.891,1.06 29.94,1.633 44.767,3.389 C 2.174,-1.839 1.763,-0.16 0,0"
               inkscape:connector-curvature="0"
               style="fill:#c5c1c0" />
          </g>
          <g
             transform="translate(465.7224,399.5769)"
             id="g76"
             style="fill-opacity:1;fill-rule:nonzero;stroke:none">
            <path
               id="path3854"
               d="m 0,0 c -4.46,-2.632 -8.633,-6.903 -9.614,-12.164 -0.369,-1.98 3.692,-2.402 4.687,-1.34 3.301,3.527 6.236,7.193 9.917,10.371 C 7.637,-0.847 1.786,1.055 0,0"
               inkscape:connector-curvature="0"
               style="fill:#c5c1c0" />
          </g>
        </g>
      </g>
    </g>
  </g>
</svg>
